<?xml version="1.0" encoding="utf-8"?>
<!-- Generator: Adobe Illustrator 15.1.0, SVG Export Plug-In . SVG Version: 6.00 Build 0)  -->
<!DOCTYPE svg PUBLIC "-//W3C//DTD SVG 1.1//EN" "http://www.w3.org/Graphics/SVG/1.1/DTD/svg11.dtd" [
	<!ENTITY ns_extend "http://ns.adobe.com/Extensibility/1.0/">
	<!ENTITY ns_ai "http://ns.adobe.com/AdobeIllustrator/10.0/">
	<!ENTITY ns_graphs "http://ns.adobe.com/Graphs/1.0/">
	<!ENTITY ns_vars "http://ns.adobe.com/Variables/1.0/">
	<!ENTITY ns_imrep "http://ns.adobe.com/ImageReplacement/1.0/">
	<!ENTITY ns_sfw "http://ns.adobe.com/SaveForWeb/1.0/">
	<!ENTITY ns_custom "http://ns.adobe.com/GenericCustomNamespace/1.0/">
	<!ENTITY ns_adobe_xpath "http://ns.adobe.com/XPath/1.0/">
]>
<svg version="1.1" xmlns:x="&ns_extend;" xmlns:i="&ns_ai;" xmlns:graph="&ns_graphs;"
	 xmlns="http://www.w3.org/2000/svg" xmlns:xlink="http://www.w3.org/1999/xlink" x="0px" y="0px" width="328px" height="203px"
	 viewBox="0 0 328 203" enable-background="new 0 0 328 203" xml:space="preserve">
					<line fill-rule="evenodd" clip-rule="evenodd" fill="#FFFFFF" stroke="#000000" stroke-width="0.504" stroke-miterlimit="2.4142" x1="44.232" y1="71.16" x2="44.232" y2="112.848"/>
				
					<line fill-rule="evenodd" clip-rule="evenodd" fill="#FFFFFF" stroke="#000000" stroke-width="0.504" stroke-miterlimit="2.4142" x1="176.641" y1="33.288" x2="230.784" y2="33.072"/>
				
					<path fill-rule="evenodd" clip-rule="evenodd" fill="none" stroke="#000000" stroke-width="0.504" stroke-miterlimit="2.4142" d="
					M276.216,72.96c3.744,11.304,6.265,23.976,6.265,36.216c0,13.464-2.881,27.721-7.561,39.816"/>
				
					<path fill-rule="evenodd" clip-rule="evenodd" fill="none" stroke="#000000" stroke-width="0.504" stroke-miterlimit="2.4142" d="
					M275.279,145.896c0,14.111-45.071,25.703-100.223,25.703c-55.225,0-100.297-11.592-100.297-25.703c0-0.145,0-0.288,0-0.433"/>
				
					<path fill-rule="evenodd" clip-rule="evenodd" fill="#BCBEC0" stroke="#000000" stroke-width="0.504" stroke-miterlimit="2.4142" d="
					M175.057,45.384c54.791,0,99.647,11.521,99.647,25.632c0,14.112-44.856,25.633-99.647,25.633
					c-55.009,0-99.937-11.521-99.937-25.633C75.12,56.904,120.048,45.384,175.057,45.384L175.057,45.384z"/>
				
					<path fill-rule="evenodd" clip-rule="evenodd" fill="none" stroke="#000000" stroke-width="0.504" stroke-miterlimit="2.4142" d="
					M75.048,148.632c-4.608-12.168-7.488-25.992-7.488-39.456c0-13.104,2.52-26.567,7.128-38.304"/>
				
					<path fill-rule="evenodd" clip-rule="evenodd" fill="#FFFFFF" stroke="#000000" stroke-width="0.504" stroke-miterlimit="2.4142" d="
					M174.984,56.4c32.688,0,59.543,6.552,59.543,14.472c0,8.063-26.855,14.472-59.543,14.472c-32.833,0-59.688-6.408-59.688-14.472
					C115.296,62.952,142.152,56.4,174.984,56.4L174.984,56.4z"/>
				<text transform="matrix(1 0 0 1 19.8809 86.0566)" font-family="'BookAntiqua'" font-size="11.9999">h</text>
				<text transform="matrix(0.583 0 0 0.583 26.8652 90.0527)" font-family="'BookAntiqua'" font-size="11.9999">cyl</text>
				<text transform="matrix(1 0 0 1 177.5508 23.3203)" font-family="'BookAntiqua'" font-size="11.9999">r</text>
				<text transform="matrix(0.583 0 0 0.583 182.291 27.3164)" font-family="'BookAntiqua'" font-size="11.9999">o</text>
</svg>
