<?xml version="1.0" encoding="UTF-8" standalone="no"?>
<!-- Created with Inkscape (http://www.inkscape.org/) -->

<svg
   xmlns:dc="http://purl.org/dc/elements/1.1/"
   xmlns:cc="http://creativecommons.org/ns#"
   xmlns:rdf="http://www.w3.org/1999/02/22-rdf-syntax-ns#"
   xmlns:svg="http://www.w3.org/2000/svg"
   xmlns="http://www.w3.org/2000/svg"
   xmlns:xlink="http://www.w3.org/1999/xlink"
   version="1.1"
   width="288"
   height="360"
   viewBox="0 0 288 360"
   id="Layer_1"
   xml:space="preserve"><defs
   id="defs4048" /><metadata
   id="metadata3745"><rdf:RDF><cc:Work
       rdf:about=""><dc:format>image/svg+xml</dc:format><dc:type
         rdf:resource="http://purl.org/dc/dcmitype/StillImage" /><dc:title></dc:title></cc:Work></rdf:RDF></metadata>

<g
   transform="matrix(1.033791,0,0,0.99592523,-9.745739,-2.5088341)"
   id="g3627">
				<defs
   id="defs3629">
					<rect
   width="192.089"
   height="269.01501"
   x="49.005001"
   y="45.553001"
   id="SVGID_1_" />
				</defs>
				<clipPath
   id="SVGID_2_">
					<use
   id="use3633"
   style="overflow:visible"
   x="0"
   y="0"
   width="288"
   height="360"
   xlink:href="#SVGID_1_" />
				</clipPath>
				<g
   clip-path="url(#SVGID_2_)"
   id="g3635">
					<text
   transform="matrix(1.0019,0,0,1,49.0059,55.9775)"
   id="text3637"
   style="font-size:11.02420044px;fill:#010101;font-family:Calibri"> </text>



				</g>
			</g><line
   style="fill:none;stroke:#010101;stroke-width:1.03274286;stroke-linecap:square;stroke-miterlimit:10"
   id="line3639"
   y2="254.46577"
   x2="231.90291"
   y1="118.8825"
   x1="103.79035"
   stroke-miterlimit="10" /><polygon
   points="236.315,260.869 231.747,259.114 234.98,256.167 234.98,256.167 "
   transform="matrix(1.033791,0,0,0.99592523,-9.745739,-2.5088341)"
   id="polygon3641"
   style="fill:#010101;fill-rule:evenodd" /><path
   d="m 161.98039,167.78143 c -10.38085,-1.4087 -20.15876,9.46452 -17.73978,19.63789 1.26323,4.42445 5.24364,7.18014 8.11025,10.52806 3.58213,3.68195 6.04135,8.63919 10.85373,10.9451 3.53891,1.92124 8.84616,2.20208 11.449,-1.37821 3.26892,-4.2519 1.58861,-10.11553 4.1037,-14.65083 2.36533,-3.68753 7.03397,-4.37637 10.96767,-5.28099 4.88993,-1.0888 6.38608,-8.46131 2.38715,-11.45404 -4.14399,-4.03997 -10.26099,-5.02501 -15.81771,-4.5662 -4.9738,-0.46526 -9.2424,-3.85367 -14.31401,-3.78078 z"
   id="polygon3643"
   style="fill:#c1c0c0;fill-rule:evenodd" /><line
   style="fill:none;stroke:#010101;stroke-width:1.03274286;stroke-linecap:square;stroke-miterlimit:10"
   id="line3655"
   y2="291.2373"
   x2="82.10556"
   y1="118.8825"
   x1="86.355469"
   stroke-miterlimit="10" /><polygon
   points="88.744,298.773 86.67,294.352 91.027,294.457 91.027,294.457 "
   transform="matrix(1.033791,0,0,0.99592523,-9.745739,-2.5088341)"
   id="polygon3657"
   style="fill:#010101;fill-rule:evenodd" /><line
   style="fill:none;stroke:#010101;stroke-width:0.35615322;stroke-linecap:square;stroke-miterlimit:10"
   id="line3659"
   y2="173.40941"
   x2="164.81401"
   y1="146.60008"
   x1="156.85898"
   stroke-miterlimit="10" /><polygon
   points="160.421,147.157 162.705,149.649 159.789,150.491 159.789,150.491 "
   transform="matrix(1.033791,0,0,0.99592523,-9.745739,-2.5088341)"
   id="polygon3661"
   style="fill:#010101;fill-rule:evenodd" /><line
   style="fill:none;stroke:#010101;stroke-width:0.35615322;stroke-linecap:square;stroke-miterlimit:10"
   id="line3663"
   y2="181.79907"
   x2="156.09605"
   y1="178.05838"
   x1="132.63107"
   stroke-miterlimit="10" /><polygon
   points="135.123,180.85 138.356,179.867 137.864,182.85 137.864,182.85 "
   transform="matrix(1.033791,0,0,0.99592523,-9.745739,-2.5088341)"
   id="polygon3665"
   style="fill:#010101;fill-rule:evenodd" /><line
   style="fill:none;stroke:#010101;stroke-width:0.35615322;stroke-linecap:square;stroke-miterlimit:10"
   id="line3667"
   y2="198.57544"
   x2="182.24889"
   y1="225.4196"
   x1="190.20392"
   stroke-miterlimit="10" /><polygon
   points="194.152,231.389 191.868,228.896 194.784,228.055 194.784,228.055 "
   transform="matrix(1.033791,0,0,0.99592523,-9.745739,-2.5088341)"
   id="polygon3669"
   style="fill:#010101;fill-rule:evenodd" /><line
   style="fill:none;stroke:#010101;stroke-width:0.35615322;stroke-linecap:square;stroke-miterlimit:10"
   id="line3671"
   y2="190.18675"
   x2="190.96684"
   y1="193.96132"
   x1="214.39462"
   stroke-miterlimit="10" /><polygon
   points="219.45,197.696 216.218,198.714 216.709,195.695 216.709,195.695 "
   transform="matrix(1.033791,0,0,0.99592523,-9.745739,-2.5088341)"
   id="polygon3673"
   style="fill:#010101;fill-rule:evenodd" /><text
   x="40.676422"
   y="66.455948"
   transform="scale(1.0193932,0.98097572)"
   id="text3675"
   style="font-size:12.18287277px"><tspan
     x="40.676422"
     y="66.455948"
     id="tspan3677"
     style="font-size:11.40205193px;fill:#010101;font-family:ArialMT">Central</tspan></text>


<text
   x="42.554173"
   y="80.137924"
   transform="scale(1.0193932,0.98097572)"
   id="text3683"
   style="font-size:11.40205193px;fill:#010101;font-family:ArialMT">Object</text>


<text
   x="157.8632"
   y="201.57011"
   transform="scale(1.0193932,0.98097572)"
   id="text3685"
   style="font-size:11.40205193px;fill:#010101;font-family:ArialMT">B</text>


<text
   x="103.38569"
   y="80.709"
   transform="scale(1.0193932,0.98097572)"
   id="text3687"
   style="font-size:11.40205193px;fill:#010101;font-family:ArialMT">Reflected</text>


<text
   x="104.34444"
   y="94.390976"
   transform="scale(1.0193932,0.98097572)"
   id="text3689"
   style="font-size:12.18287277px"><tspan
     x="104.34444"
     y="94.390976"
     id="tspan3691"
     style="font-size:11.40205193px;fill:#010101;font-family:ArialMT">Emission</tspan></text>


<text
   x="144.39432"
   y="248.88179"
   transform="scale(1.0193932,0.98097572)"
   id="text3697"
   style="font-size:12.18287277px"><tspan
     x="144.39432"
     y="248.88179"
     id="tspan3699"
     style="font-size:11.40205193px;fill:#010101;font-family:ArialMT">Transmitted</tspan></text>


<text
   x="151.38234"
   y="262.56375"
   transform="scale(1.0193932,0.98097572)"
   id="text3709"
   style="font-size:12.18287277px"><tspan
     x="151.38234"
     y="262.56375"
     id="tspan3711"
     style="font-size:11.40205193px;fill:#010101;font-family:ArialMT">Emission</tspan></text>


<path
   d="m 176.03788,48.066241 c -11.92307,2.63435 -16.03262,18.302522 -11.20552,28.356536 5.40764,8.652072 15.80639,12.420602 22.05153,20.410269 5.1657,9.881524 19.83659,-0.204091 15.45987,-9.066153 -5.16871,-7.095098 -5.38572,-17.745461 4.81631,-19.884813 8.23908,-5.486611 3.45041,-20.137455 -6.64438,-18.737246 -8.36564,1.93974 -16.17906,-1.308494 -24.47781,-1.078593 z"
   id="polygon3717"
   style="fill:#c1c0c0;fill-rule:evenodd" /><line
   style="fill:none;stroke:#010101;stroke-width:0.35615322;stroke-linecap:square;stroke-miterlimit:10"
   id="line3721"
   y2="74.560844"
   x2="208.14742"
   y1="81.307236"
   x1="236.26241"
   stroke-miterlimit="10" /><polygon
   points="240.531,84.826 237.229,85.562 237.967,82.615 237.967,82.615 "
   transform="matrix(1.033791,0,0,0.99592523,-9.745739,-2.5088341)"
   id="polygon3723"
   style="fill:#010101;fill-rule:evenodd" /><line
   style="fill:none;stroke:#010101;stroke-width:0.35615322;stroke-linecap:square;stroke-miterlimit:10"
   id="line3725"
   y2="63.096745"
   x2="204.95197"
   y1="45.444965"
   x1="220.06187"
   stroke-miterlimit="10" /><polygon
   points="223.982,46.079 223.209,49.378 220.855,47.448 220.855,47.448 "
   transform="matrix(1.033791,0,0,0.99592523,-9.745739,-2.5088341)"
   id="polygon3727"
   style="fill:#010101;fill-rule:evenodd" /><line
   style="fill:none;stroke:#010101;stroke-width:0.35615322;stroke-linecap:square;stroke-miterlimit:10"
   id="line3729"
   y2="67.954865"
   x2="165.79507"
   y1="61.209465"
   x1="137.68008"
   stroke-miterlimit="10" /><polygon
   points="140.007,63.312 143.345,62.575 142.607,65.522 142.607,65.522 "
   transform="matrix(1.033791,0,0,0.99592523,-9.745739,-2.5088341)"
   id="polygon3731"
   style="fill:#010101;fill-rule:evenodd" /><line
   style="fill:none;stroke:#010101;stroke-width:0.35615322;stroke-linecap:square;stroke-miterlimit:10"
   id="line3733"
   y2="79.41996"
   x2="168.99156"
   y1="97.07074"
   x1="153.88063"
   stroke-miterlimit="10" /><polygon
   points="156.592,102.058 157.329,98.759 159.684,100.689 159.684,100.689 "
   transform="matrix(1.033791,0,0,0.99592523,-9.745739,-2.5088341)"
   id="polygon3735"
   style="fill:#010101;fill-rule:evenodd" /><text
   x="174.96863"
   y="77.5047"
   transform="scale(1.0193932,0.98097572)"
   id="text3737"
   style="font-size:11.40205193px;fill:#010101;font-family:ArialMT">A</text>


<text
   x="76.305435"
   y="312.81018"
   transform="scale(1.0193932,0.98097572)"
   id="text3739"
   style="font-size:11.40205193px;fill:#010101;font-family:ArialMT">C</text>




<g
   transform="translate(42.895442,-77.92672)"
   id="g3930"><path
     d="m 33.437762,169.62048 -3.101281,-4.15582 -1.561299,4.94481 -1.27485,-5.02628 -3.334747,3.97092 0.745667,-5.13154 -4.600509,2.39249 2.652662,-4.45557 -5.165886,0.44984 4.155814,-3.10128 -4.944803,-1.5613 5.02628,-1.27485 -3.970919,-3.33474 5.131541,0.74566 -2.392499,-4.60051 4.455572,2.65267 -0.449842,-5.16589 3.101281,4.15581 1.5613,-4.9448 1.274849,5.02628 3.334747,-3.97092 -0.745667,5.13154 4.60051,-2.39249 -2.652662,4.45557 5.165886,-0.44985 -4.155814,3.10129 4.944803,1.5613 -5.02628,1.27485 3.970919,3.33474 -5.131541,-0.74566 2.392498,4.6005 -4.455571,-2.65266 z"
     transform="translate(14.588806,17.916526)"
     id="path3146"
     style="fill:#ffff00;fill-rule:evenodd;stroke:#000000;stroke-width:0.30000001;stroke-linecap:butt;stroke-linejoin:miter;stroke-miterlimit:4;stroke-opacity:1;stroke-dasharray:none" /><path
     d="m 43.266148,198.33299 a 4.5143399,4.5143399 0 1 1 -9.02868,0 4.5143399,4.5143399 0 1 1 9.02868,0 z"
     transform="matrix(1.4459993,0,0,1.4459993,-12.230529,-110.6258)"
     id="path3928"
     style="fill:none;stroke:#000000;stroke-width:0.1;stroke-miterlimit:4;stroke-opacity:1;stroke-dasharray:none" /></g></svg>