<?xml version="1.0" encoding="UTF-8" standalone="no"?>
<!-- Created with Inkscape (http://www.inkscape.org/) -->

<svg
   xmlns:dc="http://purl.org/dc/elements/1.1/"
   xmlns:cc="http://creativecommons.org/ns#"
   xmlns:rdf="http://www.w3.org/1999/02/22-rdf-syntax-ns#"
   xmlns:svg="http://www.w3.org/2000/svg"
   xmlns="http://www.w3.org/2000/svg"
   xmlns:sodipodi="http://sodipodi.sourceforge.net/DTD/sodipodi-0.dtd"
   xmlns:inkscape="http://www.inkscape.org/namespaces/inkscape"
   width="744.09448819"
   height="1052.3622047"
   id="svg3001"
   version="1.1"
   inkscape:version="0.48.2 r9819"
   sodipodi:docname="Fe7_levels.pdf">
  <defs
     id="defs3003" />
  <sodipodi:namedview
     id="base"
     pagecolor="#ffffff"
     bordercolor="#666666"
     borderopacity="1.0"
     inkscape:pageopacity="0.0"
     inkscape:pageshadow="2"
     inkscape:zoom="1"
     inkscape:cx="-40.411372"
     inkscape:cy="1064.9685"
     inkscape:document-units="px"
     inkscape:current-layer="layer1"
     showgrid="false"
     showguides="true"
     inkscape:guide-bbox="true"
     inkscape:window-width="1366"
     inkscape:window-height="746"
     inkscape:window-x="-8"
     inkscape:window-y="-8"
     inkscape:window-maximized="1" />
  <metadata
     id="metadata3006">
    <rdf:RDF>
      <cc:Work
         rdf:about="">
        <dc:format>image/svg+xml</dc:format>
        <dc:type
           rdf:resource="http://purl.org/dc/dcmitype/StillImage" />
        <dc:title></dc:title>
      </cc:Work>
    </rdf:RDF>
  </metadata>
  <g
     inkscape:label="Layer 1"
     inkscape:groupmode="layer"
     id="layer1">
    <rect
       style="fill:#fcfbfb;fill-opacity:1;fill-rule:evenodd;stroke:#000000;stroke-width:1;stroke-linejoin:round;stroke-miterlimit:4;stroke-opacity:1;stroke-dasharray:none;stroke-dashoffset:0"
       id="rect3009"
       width="500"
       height="500"
       x="50.507999"
       y="46.800182" />
    <rect
       style="fill:#fcfbfb;fill-opacity:1;fill-rule:evenodd;stroke:#ffeeee;stroke-width:0;stroke-linejoin:round;stroke-miterlimit:4;stroke-opacity:1;stroke-dasharray:none;stroke-dashoffset:0"
       id="rect3789"
       width="537.33777"
       height="35.142345"
       x="32.674999"
       y="131.69284" />
    <path
       style="fill:#fcfbfb;fill-opacity:1;fill-rule:evenodd;stroke:#ffeeee;stroke-width:0;stroke-linejoin:round;stroke-miterlimit:4;stroke-opacity:1;stroke-dasharray:none;stroke-dashoffset:0"
       id="path3797"
       d="m 21.183124,153.74719 c 6.774826,-5.48103 11.807685,-7.2684 18.49138,-10.10244 1.70403,-0.72254 3.30184,-1.61459 5.024586,-2.30471 3.535215,-1.16402 7.016615,-2.44222 10.534034,-3.65766 0.619065,-0.16374 1.245807,-0.30081 1.857196,-0.49122 1.06558,-0.33186 2.093005,-0.77837 3.157242,-1.1145 1.283122,-0.40528 2.549467,-0.63162 3.792743,-1.14881 1.797068,-0.691 3.741978,-0.84923 5.272343,-2.08919 -30.030217,17.33128 -5.653311,3.21798 1.515078,-0.72604 0.265106,-0.14586 0.599674,-0.10931 0.879667,-0.22403 0.82116,-0.33645 1.4849,-0.76507 2.359154,-1.02429 -0.542492,0.13412 1.942301,-1.10178 1.459057,-0.82225 -4.318529,2.498 -17.335461,9.88484 -13.020132,7.38131 3.761098,-2.182 34.540022,-19.85727 1.429047,-0.83742 1.453185,-0.84579 2.769596,-1.83976 3.911002,-3.07474 1.206248,-1.39706 2.134875,-2.98125 3.09416,-4.54979 1.202314,-1.69423 1.656639,-3.65146 1.921327,-5.67303 0.216394,-2.22353 0.20261,-4.46091 0.204491,-6.69247 0.01018,-2.31638 -0.162086,-4.62675 0.316462,-6.9052 0.595005,-1.96489 1.739812,-3.68129 3.186108,-5.11832 1.139201,1.43304 11.729587,-8.049966 17.531809,-9.588389 1.290228,-0.342096 2.607827,-0.534267 3.904078,-0.855263 2.999074,-0.623738 5.825514,-1.838362 8.800674,-2.553355 3.63801,-0.811406 7.15905,-1.894422 10.86387,-2.403072 4.46935,-0.532315 8.90969,-1.203503 13.39891,-1.570238 3.47403,-0.253812 6.88853,-0.926043 10.36644,-1.174177 3.74559,-0.322449 7.44649,-0.207916 11.1312,0.527212 4.46306,1.157833 8.81342,2.699115 13.11589,4.347468 4.92567,2.034061 9.56186,4.677569 14.39097,6.919947 3.15216,1.132106 6.19834,2.638627 9.46465,3.425767 2.13914,0.15599 4.18935,0.64946 6.29377,1.02537 3.27363,1.01488 6.72841,1.02149 10.06808,1.65858 2.79175,0.38548 5.44792,1.32507 8.22268,1.79008 10.37639,2.1433 20.6848,4.58263 31.05501,6.76069 22.26778,4.559 44.46123,9.46036 66.78381,13.75594 16.39728,3.33998 33.01998,5.24307 49.61713,7.24096 13.3933,1.53779 26.79412,2.93297 40.22182,4.1286 12.30377,1.10146 24.65419,1.44928 37.00007,1.63052 7.95692,0.0774 15.91423,0.005 23.87116,-0.0319 6.84433,0.0199 13.68795,0.0167 20.5321,-0.0361 5.05265,-0.012 10.08541,0.0663 15.11457,-0.45139 3.39945,-0.32192 6.7842,-0.75551 10.17943,-1.09352 6.18318,-0.48384 12.39184,-0.5201 18.58978,-0.66263 4.33729,-0.0793 8.67466,-0.1547 13.01253,-0.19315 2.49373,-0.62456 5.04007,-0.8379 7.60003,-0.96517 2.50493,-0.22043 5.13106,-0.5503 7.5423,-1.31175 0.70542,-0.31761 1.49934,-0.31515 2.22278,-0.56135 0.32406,-0.11029 1.224,-0.61219 0.92677,-0.4424 -31.86473,18.20198 -15.60975,10.27829 -12.41274,6.65851 0.96661,-1.7627 0.91714,-3.84466 0.96003,-5.80132 0,0 14.89882,-7.56693 14.89882,-7.56693 l 0,0 c -0.009,2.18595 0.0187,4.4074 -0.54207,6.53734 -2.72274,7.24768 -12.18304,9.48143 -19.31975,11.32271 -2.5261,0.48402 -5.06266,0.96068 -7.64221,1.01944 -2.57038,0.23158 -5.09838,0.75909 -7.67376,0.87508 -4.2129,-0.0402 -8.42611,-0.0916 -12.6392,-0.0432 -6.25252,0.0711 -12.52069,0.19985 -18.73286,0.97501 -3.38156,0.47147 -6.77842,0.74806 -10.18097,1.02687 -4.99787,0.34885 -10.00216,0.23401 -15.00909,0.20083 -6.82882,-0.0454 -13.65698,-0.0344 -20.48587,0.003 -7.82469,-0.0248 -15.64929,-0.10119 -23.47174,-0.29971 -12.26352,-0.32875 -24.51939,-0.92159 -36.74663,-1.94041 -13.41343,-1.17233 -26.79368,-2.61141 -40.16008,-4.24048 -16.38626,-2.13042 -32.78613,-4.23615 -48.93057,-7.85182 -22.31917,-4.58424 -44.54412,-9.6708 -66.99128,-13.60055 -10.93093,-1.92061 -21.83761,-3.99325 -32.83375,-5.50966 -2.7334,-0.56454 -5.40167,-1.41718 -8.17375,-1.80629 -3.3856,-0.5587 -6.81635,-0.84433 -10.17066,-1.60243 -2.12265,-0.41134 -4.27004,-0.65139 -6.3699,-1.16263 -3.19029,-1.04542 -6.21048,-2.56548 -9.29533,-3.87554 -4.74204,-2.341 -9.44119,-4.7883 -14.34799,-6.77427 -4.2794,-1.560619 -8.5991,-3.115323 -13.07707,-3.999155 -3.62969,-0.516621 -7.26637,-0.563667 -10.91635,-0.159717 -3.43597,0.35179 -6.84517,0.953437 -10.29917,1.118187 -4.44882,0.38203 -8.86148,1.046869 -13.28512,1.645179 -3.67985,0.694137 -7.246087,1.800336 -10.893896,2.637216 -2.943977,0.88303 -5.849813,1.91146 -8.864196,2.54253 -7.118795,1.64842 -16.256651,7.43869 7.342381,-5.840982 -1.661924,0.918767 -2.817314,2.484252 -3.609224,4.186722 -0.949081,2.02323 -0.489095,4.27151 -0.566137,6.44778 0.0044,2.28273 0.02239,4.56805 -0.116242,6.84767 -0.183659,2.1902 -0.462634,4.40178 -1.563682,6.34915 -1.018087,1.56343 -1.795838,3.27463 -3.038196,4.66789 -0.905982,1.49248 -2.123959,2.7688 -3.657282,3.60607 -49.366197,28.71744 33.425614,-19.2527 -17.162749,10.03363 -0.651199,0.37699 -0.853873,0.41859 -1.558948,0.68163 -17.604894,7.87569 44.349461,-24.49498 -4.588911,2.20174 -1.77733,0.67884 -3.616404,1.13589 -5.405195,1.78698 -2.911175,0.79195 -5.772074,1.73665 -8.645355,2.65598 -3.475895,1.28168 -7.026362,2.34129 -10.463417,3.72887 -6.350777,2.87935 -21.44774,10.32194 5.103815,-3.86894 0,0 -15.670962,6.04579 -15.670962,6.04579 z"
       inkscape:connector-curvature="0" />
    <path
       style="fill:#fcfbfb;fill-opacity:1;fill-rule:evenodd;stroke:#ffeeee;stroke-width:0;stroke-linejoin:round;stroke-miterlimit:4;stroke-opacity:1;stroke-dasharray:none;stroke-dashoffset:0"
       id="path3799"
       d="m 592.44617,175.19658 c -0.62235,5.6483 0.80476,11.10607 2.17156,16.53512 5.94583,17.87111 15.31879,34.35327 24.55293,50.68356 7.01284,11.94276 3.53248,6.24842 10.39898,17.10867 0,0 -12.6046,7.3091 -12.6046,7.3091 l 0,0 c -6.41047,-11.16295 -3.09203,-5.35924 -9.9501,-17.41412 -9.28042,-16.40906 -19.04548,-32.68055 -26.20881,-50.15916 -1.71121,-5.35661 -3.44375,-10.73438 -3.35233,-16.42417 0,0 14.99237,-7.639 14.99237,-7.639 z"
       inkscape:connector-curvature="0" />
    <path
       style="fill:none;stroke:#000000;stroke-width:1px;stroke-linecap:butt;stroke-linejoin:miter;stroke-opacity:1"
       d="M 30.607848,152.26472 72.551936,109.18701"
       id="path3805"
       inkscape:connector-curvature="0" />
    <path
       style="fill:none;stroke:#000000;stroke-width:1px;stroke-linecap:butt;stroke-linejoin:miter;stroke-opacity:1"
       d="M 28.907412,189.67431 70.851502,146.5966"
       id="path3805-4"
       inkscape:connector-curvature="0" />
    <path
       style="fill:none;stroke:#000000;stroke-width:1px;stroke-linecap:butt;stroke-linejoin:miter;stroke-opacity:1"
       d="m 527.70198,154.53196 41.94408,-43.07771"
       id="path3805-0"
       inkscape:connector-curvature="0" />
    <path
       style="fill:none;stroke:#000000;stroke-width:1px;stroke-linecap:butt;stroke-linejoin:miter;stroke-opacity:1"
       d="m 525.43473,191.94156 41.94409,-43.07771"
       id="path3805-9"
       inkscape:connector-curvature="0" />
    <path
       style="fill:none;stroke:#000000;stroke-width:1px;stroke-linecap:butt;stroke-linejoin:miter;stroke-opacity:1"
       d="m 550.10749,510.48991 -13.60349,0"
       id="path3843"
       inkscape:connector-curvature="0" />
    <path
       style="fill:none;stroke:#000000;stroke-width:1px;stroke-linecap:butt;stroke-linejoin:miter;stroke-opacity:1"
       d="m 550.10349,261.86218 -13.60349,0"
       id="path3843-8"
       inkscape:connector-curvature="0" />
    <path
       style="fill:none;stroke:#000000;stroke-width:1px;stroke-linecap:butt;stroke-linejoin:miter;stroke-opacity:1"
       d="m 550.10349,382.34118 -13.60349,0"
       id="path3843-45"
       inkscape:connector-curvature="0" />
    <flowRoot
       xml:space="preserve"
       id="flowRoot3886"
       style="font-size:36px;font-style:normal;font-weight:normal;line-height:125%;letter-spacing:0px;word-spacing:0px;fill:#000000;fill-opacity:1;stroke:none;font-family:Sans"><flowRegion
         id="flowRegion3888"><rect
           id="rect3890"
           width="69.151062"
           height="30.607847"
           x="560.01025"
           y="495.75281"
           style="font-size:36px" /></flowRegion><flowPara
         id="flowPara3892">000</flowPara></flowRoot>    <flowRoot
       xml:space="preserve"
       id="flowRoot3894"
       style="fill:black;stroke:none;stroke-opacity:1;stroke-width:1px;stroke-linejoin:miter;stroke-linecap:butt;fill-opacity:1;font-family:Sans;font-style:normal;font-weight:normal;font-size:28px;line-height:125%;letter-spacing:0px;word-spacing:0px"><flowRegion
         id="flowRegion3896"><rect
           id="rect3898"
           width="71.418312"
           height="37.409592"
           x="556.60938"
           y="494.61917"
           style="font-size:28px" /></flowRegion><flowPara
         id="flowPara3900" /></flowRoot>    <flowRoot
       xml:space="preserve"
       id="flowRoot3910"
       style="font-size:14px;font-style:normal;font-weight:normal;line-height:125%;letter-spacing:0px;word-spacing:0px;fill:#000000;fill-opacity:1;stroke:none;font-family:Sans"><flowRegion
         id="flowRegion3912"><rect
           id="rect3914"
           width="5.6681199"
           height="23.806105"
           x="558.87665"
           y="496.88641" /></flowRegion><flowPara
         id="flowPara3916">0000hh</flowPara></flowRoot>    <text
       xml:space="preserve"
       style="font-size:14px;font-style:normal;font-weight:normal;line-height:125%;letter-spacing:0px;word-spacing:0px;fill:#000000;fill-opacity:1;stroke:none;font-family:Sans"
       x="557.74304"
       y="519.5589"
       id="text3918"
       sodipodi:linespacing="125%"><tspan
         sodipodi:role="line"
         id="tspan3920"
         x="557.74304"
         y="519.5589"
         style="font-size:24px">0</tspan></text>
    <text
       xml:space="preserve"
       style="font-size:24px;font-style:normal;font-weight:normal;line-height:125%;letter-spacing:0px;word-spacing:0px;fill:#000000;fill-opacity:1;stroke:none;font-family:Sans"
       x="557"
       y="389.36218"
       id="text3922"
       sodipodi:linespacing="125%"><tspan
         sodipodi:role="line"
         x="557"
         y="389.36218"
         id="tspan3926">10000</tspan></text>
    <text
       xml:space="preserve"
       style="font-size:24px;font-style:normal;font-weight:normal;line-height:125%;letter-spacing:0px;word-spacing:0px;fill:#000000;fill-opacity:1;stroke:none;font-family:Sans"
       x="558"
       y="268.36218"
       id="text3930"
       sodipodi:linespacing="125%"><tspan
         sodipodi:role="line"
         x="558"
         y="268.36218"
         id="tspan3934">20000</tspan></text>
    <text
       xml:space="preserve"
       style="font-size:24px;font-style:normal;font-weight:normal;line-height:125%;letter-spacing:0px;word-spacing:0px;fill:#000000;fill-opacity:1;stroke:none;font-family:Sans"
       x="579"
       y="162.36218"
       id="text3938"
       sodipodi:linespacing="125%"><tspan
         sodipodi:role="line"
         id="tspan3940"
         x="579"
         y="162.36218">30000</tspan></text>
    <text
       xml:space="preserve"
       style="font-size:24px;font-style:normal;font-weight:normal;line-height:125%;letter-spacing:0px;word-spacing:0px;fill:#000000;fill-opacity:1;stroke:none;font-family:Sans;-inkscape-font-specification:Sans;font-stretch:normal;font-variant:normal;text-anchor:start;text-align:start;writing-mode:lr"
       x="574"
       y="116.36218"
       id="text3942"
       sodipodi:linespacing="125%"><tspan
         sodipodi:role="line"
         id="tspan4100">400000</tspan></text>
    <flowRoot
       xml:space="preserve"
       id="flowRoot3958"
       style="fill:black;stroke:none;stroke-opacity:1;stroke-width:1px;stroke-linejoin:miter;stroke-linecap:butt;fill-opacity:1;font-family:Sans;font-style:normal;font-weight:normal;font-size:24px;line-height:125%;letter-spacing:0px;word-spacing:0px"><flowRegion
         id="flowRegion3960"><rect
           id="rect3962"
           width="27"
           height="32"
           x="181"
           y="503.36218" /></flowRegion><flowPara
         id="flowPara3964" /></flowRoot>    <text
       xml:space="preserve"
       style="font-size:24px;font-style:normal;font-variant:normal;font-weight:normal;font-stretch:normal;text-align:start;line-height:125%;letter-spacing:0px;word-spacing:0px;writing-mode:lr-tb;text-anchor:start;fill:#000000;fill-opacity:1;stroke:none;font-family:Sans;-inkscape-font-specification:Sans"
       x="111"
       y="518.36218"
       id="text3998"
       sodipodi:linespacing="125%"><tspan
         sodipodi:role="line"
         id="tspan4002"
         x="111"
         y="518.36218" /></text>
    <g
       id="g4028"
       transform="translate(97.893042,504.48491)">
      <text
         id="text4030"
         style="font-size:19.35000038px;font-style:normal;font-weight:normal;text-align:start;text-anchor:start;fill:#000000;font-family:Arial"
         y="13.489004"
         x="0"
         xml:space="preserve">1</text>
      <text
         id="text4032"
         style="font-size:30px;font-style:normal;font-weight:normal;text-align:start;text-anchor:start;fill:#000000;font-family:Arial"
         y="27.877275"
         x="10.8"
         xml:space="preserve">D</text>
      <text
         id="text4034"
         style="font-size:30px;font-style:normal;font-weight:normal;text-align:start;text-anchor:start;fill:#000000;font-family:Arial"
         y="27.877275"
         x="32.400002"
         xml:space="preserve"> </text>
    </g>
    <g
       id="g4048"
       transform="translate(172.89304,504.1187)">
      <text
         id="text4050"
         style="font-size:19.35000038px;font-style:normal;font-weight:normal;text-align:start;text-anchor:start;fill:#000000;font-family:Arial"
         y="13.489004"
         x="0"
         xml:space="preserve">1</text>
      <text
         id="text4052"
         style="font-size:30px;font-style:normal;font-weight:normal;text-align:start;text-anchor:start;fill:#000000;font-family:Arial"
         y="27.877275"
         x="10.8"
         xml:space="preserve">G</text>
      <text
         id="text4054"
         style="font-size:30px;font-style:normal;font-weight:normal;text-align:start;text-anchor:start;fill:#000000;font-family:Arial"
         y="27.877275"
         x="34.049999"
         xml:space="preserve"> </text>
    </g>
    <g
       id="g4068"
       transform="translate(299.18745,504.48491)">
      <text
         id="text4070"
         style="font-size:19.35000038px;font-style:normal;font-weight:normal;text-align:start;text-anchor:start;fill:#000000;font-family:Arial"
         y="13.489004"
         x="0"
         xml:space="preserve">3</text>
      <text
         id="text4072"
         style="font-size:30px;font-style:normal;font-weight:normal;text-align:start;text-anchor:start;fill:#000000;font-family:Arial"
         y="27.877275"
         x="10.8"
         xml:space="preserve">P</text>
      <text
         id="text4074"
         style="font-size:30px;font-style:normal;font-weight:normal;text-align:start;text-anchor:start;fill:#000000;font-family:Arial"
         y="27.877275"
         x="30.75"
         xml:space="preserve"> </text>
    </g>
    <g
       id="g4088"
       transform="translate(374.18745,504.48491)">
      <text
         id="text4090"
         style="font-size:19.35000038px;font-style:normal;font-weight:normal;text-align:start;text-anchor:start;fill:#000000;font-family:Arial"
         y="13.489004"
         x="0"
         xml:space="preserve">3</text>
      <text
         id="text4092"
         style="font-size:30px;font-style:normal;font-weight:normal;text-align:start;text-anchor:start;fill:#000000;font-family:Arial"
         y="27.877275"
         x="10.8"
         xml:space="preserve">D</text>
      <text
         id="text4094"
         style="font-size:19.35000038px;font-style:normal;font-weight:normal;text-align:start;text-anchor:start;fill:#000000;font-family:Arial"
         y="13.489004"
         x="32.400002"
         xml:space="preserve">o</text>
      <text
         id="text4096"
         style="font-size:19.35000038px;font-style:normal;font-weight:normal;text-align:start;text-anchor:start;fill:#000000;font-family:Arial"
         y="13.489004"
         x="43.200001"
         xml:space="preserve"> </text>
    </g>
    <g
       id="g4111"
       transform="translate(474.18745,474.48491)">
      <text
         id="text4113"
         style="font-size:19.35000038px;font-style:normal;font-weight:normal;text-align:start;text-anchor:start;fill:#000000;font-family:Arial"
         y="13.489004"
         x="0"
         xml:space="preserve">3</text>
      <text
         id="text4115"
         style="font-size:30px;font-style:normal;font-weight:normal;text-align:start;text-anchor:start;fill:#000000;font-family:Arial"
         y="27.877275"
         x="10.8"
         xml:space="preserve">F</text>
      <text
         id="text4117"
         style="font-size:13.80000019px;font-style:normal;font-weight:normal;text-align:start;text-anchor:start;fill:#000000;font-family:Calibri"
         y="27.877275"
         x="29.1"
         xml:space="preserve"> </text>
    </g>
    <path
       style="fill:none;stroke:#000000;stroke-width:1.5779196px;stroke-linecap:butt;stroke-linejoin:miter;stroke-opacity:1"
       d="m 465.79996,524.23423 51,0"
       id="path4129"
       inkscape:connector-curvature="0" />
    <path
       inkscape:connector-curvature="0"
       id="path4142"
       d="m 465.79996,534.13422 51,0"
       style="fill:none;stroke:#000000;stroke-width:1.5779196px;stroke-linecap:butt;stroke-linejoin:miter;stroke-opacity:1" />
    <path
       inkscape:connector-curvature="0"
       id="path4144"
       d="m 465.79996,514.13422 51,0"
       style="fill:none;stroke:#000000;stroke-width:1.5779196px;stroke-linecap:butt;stroke-linejoin:miter;stroke-opacity:1" />
    <path
       inkscape:connector-curvature="0"
       id="path4144-1"
       d="m 100.78896,296.26222 51,0"
       style="fill:none;stroke:#000000;stroke-width:1.5779196px;stroke-linecap:butt;stroke-linejoin:miter;stroke-opacity:1" />
    <path
       inkscape:connector-curvature="0"
       id="path4144-7"
       d="m 175.78896,171.76222 51,0"
       style="fill:none;stroke:#000000;stroke-width:1.5779196px;stroke-linecap:butt;stroke-linejoin:miter;stroke-opacity:1" />
    <path
       inkscape:connector-curvature="0"
       id="path4144-4"
       d="m 300.78896,261.57322 51,0"
       style="fill:none;stroke:#000000;stroke-width:1.5779196px;stroke-linecap:butt;stroke-linejoin:miter;stroke-opacity:1" />
    <path
       style="fill:none;stroke:#000000;stroke-width:1.5779196px;stroke-linecap:butt;stroke-linejoin:miter;stroke-opacity:1"
       d="m 300.78896,251.57322 51,0"
       id="path3161"
       inkscape:connector-curvature="0" />
    <path
       style="fill:none;stroke:#000000;stroke-width:1.5779196px;stroke-linecap:butt;stroke-linejoin:miter;stroke-opacity:1"
       d="m 300.78896,266.57322 51,0"
       id="path3163"
       inkscape:connector-curvature="0" />
    <path
       style="fill:none;stroke:#000000;stroke-width:1.5779196px;stroke-linecap:butt;stroke-linejoin:miter;stroke-opacity:1"
       d="m 375.78896,61.573223 51.00001,0"
       id="path3161-4"
       inkscape:connector-curvature="0" />
    <path
       inkscape:connector-curvature="0"
       id="path3216"
       d="m 375.78896,66.573223 51.00001,0"
       style="fill:none;stroke:#000000;stroke-width:1.5779196px;stroke-linecap:butt;stroke-linejoin:miter;stroke-opacity:1" />
    <path
       style="fill:none;stroke:#000000;stroke-width:1.5779196px;stroke-linecap:butt;stroke-linejoin:miter;stroke-opacity:1"
       d="m 375.78896,71.573223 51.00001,0"
       id="path3218"
       inkscape:connector-curvature="0" />
    <path
       style="fill:none;stroke:#000000;stroke-width:1;stroke-linecap:butt;stroke-linejoin:miter;stroke-opacity:1;stroke-miterlimit:4;stroke-dasharray:6,6;stroke-dashoffset:0"
       d="M 476.65485,534.40872 112.42401,295.2209"
       id="path3220"
       inkscape:connector-curvature="0" />
    <path
       style="fill:none;stroke:#000000;stroke-width:1;stroke-linecap:butt;stroke-linejoin:miter;stroke-opacity:1;stroke-miterlimit:4;stroke-dasharray:6,6;stroke-dashoffset:0"
       d="M 479.52281,524.08406 116.43915,294.64731"
       id="path3990"
       inkscape:connector-curvature="0" />
    <path
       style="fill:none;stroke:#000000;stroke-width:1.5353961;stroke-linecap:butt;stroke-linejoin:miter;stroke-miterlimit:4;stroke-opacity:1;stroke-dasharray:9.21237654, 9.21237654;stroke-dashoffset:0"
       d="M 483.84385,523.81636 193.31683,173.3826"
       id="path3992"
       inkscape:connector-curvature="0" />
    <path
       style="fill:none;stroke:#000000;stroke-width:1.52216482;stroke-linecap:butt;stroke-linejoin:miter;stroke-miterlimit:4;stroke-opacity:1;stroke-dasharray:9.13298873, 9.13298873;stroke-dashoffset:0"
       d="M 492.45434,523.82298 208.06127,174.37598"
       id="path3994"
       inkscape:connector-curvature="0" />
    <path
       style="fill:none;stroke:#000000;stroke-width:1.00639319px;stroke-linecap:butt;stroke-linejoin:miter;stroke-opacity:1"
       d="M 495.58019,524.08087 401.7039,72.096859 326.95057,261.86113"
       id="path3996"
       inkscape:connector-curvature="0" />
    <text
       xml:space="preserve"
       style="font-size:18px;font-style:normal;font-variant:normal;font-weight:normal;font-stretch:normal;text-align:start;line-height:125%;letter-spacing:0px;word-spacing:0px;writing-mode:lr-tb;text-anchor:start;fill:#000000;fill-opacity:1;stroke:none;font-family:Sans;-inkscape-font-specification:Sans"
       x="308"
       y="159.36218"
       id="text3999"
       sodipodi:linespacing="125%"><tspan
         sodipodi:role="line"
         id="tspan4003"
         x="308"
         y="159.36218">~λ245</tspan></text>
    <text
       sodipodi:linespacing="125%"
       id="text4005"
       y="260.36218"
       x="455"
       style="font-size:18px;font-style:normal;font-variant:normal;font-weight:normal;font-stretch:normal;text-align:start;line-height:125%;letter-spacing:0px;word-spacing:0px;writing-mode:lr;text-anchor:start;fill:#000000;fill-opacity:1;stroke:none;font-family:Sans;-inkscape-font-specification:Sans"
       xml:space="preserve"><tspan
         sodipodi:role="line"
         x="455"
         y="260.36218"
         id="tspan4011">~λ234</tspan></text>
    <text
       sodipodi:linespacing="125%"
       id="text4005-8"
       y="267.83484"
       x="356.0293"
       style="font-size:18px;font-style:normal;font-variant:normal;font-weight:normal;font-stretch:normal;text-align:start;line-height:125%;letter-spacing:0px;word-spacing:0px;writing-mode:lr;text-anchor:start;fill:#000000;fill-opacity:1;stroke:none;font-family:Sans;-inkscape-font-specification:Sans"
       xml:space="preserve"><tspan
         sodipodi:role="line"
         id="tspan4038"
         x="356.0293"
         y="267.83484">λλ5159,</tspan><tspan
         sodipodi:role="line"
         id="tspan4040"
         x="356.0293"
         y="297.83484">4943 etc.</tspan></text>
    <path
       style="fill:none;stroke:#000000;stroke-width:1;stroke-linecap:butt;stroke-linejoin:miter;stroke-opacity:1;stroke-miterlimit:4;stroke-dasharray:8,8;stroke-dashoffset:0"
       d="m 326,261.36218 171,262"
       id="path4042"
       inkscape:connector-curvature="0" />
    <text
       sodipodi:linespacing="125%"
       id="text4005-8-2"
       y="244.46667"
       x="159.63525"
       style="font-size:18px;font-style:normal;font-variant:normal;font-weight:normal;font-stretch:normal;text-align:start;line-height:125%;letter-spacing:0px;word-spacing:0px;writing-mode:lr;text-anchor:start;fill:#000000;fill-opacity:1;stroke:none;font-family:Sans;-inkscape-font-specification:Sans"
       xml:space="preserve"><tspan
         sodipodi:role="line"
         id="tspan4068">λλ3588,</tspan><tspan
         sodipodi:role="line"
         id="tspan4070">3760</tspan></text>
    <text
       sodipodi:linespacing="125%"
       id="text4005-8-2-5"
       y="393.46667"
       x="170.15479"
       style="font-size:18px;font-style:normal;font-variant:normal;font-weight:normal;font-stretch:normal;text-align:start;line-height:125%;letter-spacing:0px;word-spacing:0px;writing-mode:lr;text-anchor:start;fill:#000000;fill-opacity:1;stroke:none;font-family:Sans;-inkscape-font-specification:Sans"
       xml:space="preserve"><tspan
         sodipodi:role="line"
         id="tspan4096">λλ5723,</tspan><tspan
         sodipodi:role="line"
         id="tspan4098">6087</tspan></text>
  </g>
</svg>
